<svg width="13" height="13" viewBox="0 0 13 13" fill="none" xmlns="http://www.w3.org/2000/svg">
<path d="M11.3752 3.60821L10.5817 4.40172L8.59795 2.41549L9.39147 1.62198C9.55311 1.46034 9.83475 1.46034 9.9964 1.62198L11.3752 3.00328C11.5418 3.16982 11.5418 3.44167 11.3752 3.60821ZM4.7455 10.2453L2.76172 8.25907L7.89016 3.12329L9.87394 5.10952L4.7455 10.2453ZM2.30373 9.21668L3.7879 10.7033L1.72085 11.2862L2.30373 9.21668ZM12.083 2.29549L10.7042 0.914187C10.4348 0.644784 9.46249 0.135369 8.68612 0.914187L1.6988 7.9064C1.63758 7.96763 1.59349 8.0411 1.57145 8.12437L0.518332 11.874C0.46935 12.0478 0.520781 12.234 0.645686 12.3638C0.773039 12.4936 1.02775 12.5156 1.13551 12.4911L4.88265 11.4356C4.96592 11.4135 5.03939 11.3694 5.10062 11.3082L12.083 4.316C12.639 3.76005 12.639 2.85388 12.083 2.29549Z" fill="#E6C396"/>
</svg>
