<?xml version="1.0" encoding="utf-8"?><svg width="13" height="13" fill="none" xmlns="http://www.w3.org/2000/svg" viewBox="0 0 13 13"><path d="M11.375 3.608l-.793.794-1.984-1.987.793-.793a.438.438 0 01.605 0l1.38 1.381a.429.429 0 010 .605zm-6.63 6.637L2.762 8.26 7.89 3.123 9.874 5.11l-5.129 5.135zM2.304 9.217l1.484 1.486-2.067.583.583-2.07zm9.779-6.922L10.704.915c-.27-.27-1.242-.78-2.018 0L1.7 7.905a.481.481 0 00-.128.218l-1.053 3.75a.51.51 0 00.128.49c.127.13.382.152.49.127l3.747-1.055a.482.482 0 00.218-.128l6.982-6.992a1.432 1.432 0 000-2.02z" fill="#E6C396"/></svg>