<?xml version="1.0" encoding="utf-8"?><svg viewBox="0 0 20 20" xmlns="http://www.w3.org/2000/svg" xmlns:xlink="http://www.w3.org/1999/xlink"><style>:root>svg{display:none}:root>svg:target{display:block}</style><svg viewBox="0 0 20 21" fill="none" id="checked" xmlns="http://www.w3.org/2000/svg"><rect y=".4" width="20" height="20" rx="10" fill="#000"/><path d="M8.173 15.418l-3.875-4.306 1.144-1.03 2.692 2.992L14.52 5.47l1.18.988-7.526 8.96z" fill="#fff"/></svg><svg fill="none" viewBox="0 0 13 13" id="pen" xmlns="http://www.w3.org/2000/svg"><path d="M11.375 3.608l-.793.794-1.984-1.987.793-.793a.438.438 0 01.605 0l1.38 1.381a.429.429 0 010 .605zm-6.63 6.637L2.762 8.26 7.89 3.123 9.874 5.11l-5.129 5.135zM2.304 9.217l1.484 1.486-2.067.583.583-2.07zm9.779-6.922L10.704.915c-.27-.27-1.242-.78-2.018 0L1.7 7.905a.481.481 0 00-.128.218l-1.053 3.75a.51.51 0 00.128.49c.127.13.382.152.49.127l3.747-1.055a.482.482 0 00.218-.128l6.982-6.992a1.432 1.432 0 000-2.02z" fill="#E6C396"/></svg></svg>